<?xml version="1.0" encoding="utf-8"?>
<!-- Generator: Adobe Illustrator 27.5.0, SVG Export Plug-In . SVG Version: 6.00 Build 0)  -->
<svg version="1.1" xmlns="http://www.w3.org/2000/svg" xmlns:xlink="http://www.w3.org/1999/xlink" x="0px" y="0px"
	 viewBox="0 0 500 500" style="enable-background:new 0 0 500 500;" xml:space="preserve">
<g id="BACKGROUND">
	<rect x="0.062" y="-0.049" style="fill:none;" width="499.97" height="500.141"/>
</g>
<g id="OBJECTS">
	<polygon style="fill:#f4511e;" points="71.154,232.489 69.414,240.611 78.406,239.451 	"/>
	<g>
		<g>
			<g>
				<path style="fill:#31003A;" d="M290.724,407.683H176.049c-7.404,0-13.407-6.003-13.407-13.407V107.829
					c0-7.404,6.002-13.407,13.407-13.407h114.675c7.404,0,13.407,6.002,13.407,13.407v286.447
					C304.131,401.681,298.128,407.683,290.724,407.683z"/>
				<path style="fill:#44004E;" d="M300.837,407.683H181.393c-7.404,0-13.407-6.003-13.407-13.407V107.829
					c0-7.404,6.002-13.407,13.407-13.407h119.444c7.404,0,13.407,6.002,13.407,13.407v286.447
					C314.244,401.681,308.242,407.683,300.837,407.683z"/>
				<path style="fill:#FAF0FC;" d="M307.737,366.591H174.844c-0.235,0-0.426-0.191-0.426-0.426V121.472
					c0-0.235,0.191-0.426,0.426-0.426h132.893c0.235,0,0.426,0.191,0.426,0.426v244.693
					C308.162,366.4,307.972,366.591,307.737,366.591z"/>
				<path style="fill:#ECDFEF;" d="M243.369,366.591h-68.525c-0.235,0-0.426-0.191-0.426-0.426V121.472
					c0-0.235,0.191-0.426,0.426-0.426h68.525c0.235,0,0.426,0.191,0.426,0.426v244.693
					C243.794,366.4,243.604,366.591,243.369,366.591z"/>
				<rect x="236.811" y="105.832" style="opacity:0.46;fill:#FAF0FC;" width="34.472" height="3.351"/>
				<rect x="219.735" y="105.766" style="opacity:0.46;fill:#FAF0FC;" width="13.551" height="3.281"/>
				<circle style="fill:#FAF0FC;" cx="241.637" cy="387.105" r="11.929"/>
			</g>
			<g>
				<path style="fill:#44004E;" d="M258.542,200.199c-2.89,2.938-7.077,4.819-12.562,5.643v8.084h-8.739v-7.792
					c-3.641-0.244-7.088-0.863-10.341-1.857c-3.253-0.995-5.947-2.222-8.083-3.678l4.734-10.633
					c2.281,1.506,4.926,2.719,7.937,3.641c3.01,0.923,5.971,1.383,8.885,1.383c5.534,0,8.302-1.383,8.302-4.151
					c0-1.456-0.791-2.536-2.368-3.24c-1.578-0.703-4.115-1.444-7.609-2.221c-3.835-0.826-7.041-1.712-9.614-2.659
					c-2.573-0.946-4.782-2.463-6.626-4.551c-1.845-2.087-2.767-4.903-2.767-8.447c0-4.175,1.504-7.756,4.514-10.742
					c3.01-2.986,7.355-4.818,13.036-5.498v-8.01h8.739v7.865c2.767,0.243,5.425,0.728,7.974,1.456
					c2.549,0.728,4.817,1.675,6.809,2.84l-4.443,10.705c-4.855-2.622-9.565-3.933-14.128-3.933c-2.865,0-4.951,0.425-6.263,1.275
					c-1.31,0.85-1.965,1.955-1.965,3.313c0,1.36,0.775,2.379,2.33,3.059c1.553,0.68,4.053,1.383,7.5,2.112
					c3.884,0.826,7.101,1.711,9.65,2.658c2.549,0.947,4.757,2.452,6.626,4.515c1.869,2.064,2.805,4.868,2.805,8.411
					C262.875,193.779,261.429,197.262,258.542,200.199z"/>
			</g>
			<path style="fill:#44004E;" d="M292.16,250.738h-96.826c-1.622,0-2.936-1.315-2.936-2.936l0,0c0-1.622,1.315-2.936,2.936-2.936
				h96.826c1.622,0,2.936,1.315,2.936,2.936l0,0C295.097,249.423,293.782,250.738,292.16,250.738z"/>
			<path style="fill:#f4511e;" d="M243.464,250.738h-48.13c-1.622,0-2.936-1.315-2.936-2.936l0,0c0-1.622,1.315-2.936,2.936-2.936
				h48.13c1.622,0,2.936,1.315,2.936,2.936l0,0C246.4,249.423,245.086,250.738,243.464,250.738z"/>
			<path style="fill:#44004E;" d="M291.87,278.293h-96.826c-1.622,0-2.937-1.315-2.937-2.936l0,0c0-1.622,1.315-2.936,2.937-2.936
				h96.826c1.622,0,2.936,1.315,2.936,2.936l0,0C294.807,276.979,293.492,278.293,291.87,278.293z"/>
			<path style="fill:#f4511e;" d="M270.21,278.293h-75.166c-1.622,0-2.937-1.315-2.937-2.936l0,0c0-1.622,1.315-2.936,2.937-2.936
				h75.166c1.622,0,2.936,1.315,2.936,2.936l0,0C273.147,276.979,271.832,278.293,270.21,278.293z"/>
			<path style="fill:#44004E;" d="M290.71,303.238h-96.826c-1.622,0-2.937-1.315-2.937-2.936l0,0c0-1.622,1.315-2.936,2.937-2.936
				h96.826c1.622,0,2.936,1.315,2.936,2.936l0,0C293.647,301.923,292.332,303.238,290.71,303.238z"/>
			<path style="fill:#f4511e;" d="M214.804,303.238h-20.92c-1.622,0-2.937-1.315-2.937-2.936l0,0c0-1.622,1.315-2.936,2.937-2.936
				h20.92c1.622,0,2.937,1.315,2.937,2.936l0,0C217.74,301.923,216.426,303.238,214.804,303.238z"/>
			<g>
				<path style="fill:#f4511e;" d="M234.554,230.925c0,1.397-1.132,2.529-2.529,2.529c-1.397,0-2.529-1.132-2.529-2.529
					c0-1.397,1.132-2.529,2.529-2.529C233.422,228.396,234.554,229.529,234.554,230.925z"/>
				<path style="fill:#f4511e;" d="M245,230.999c0,1.397-1.132,2.529-2.529,2.529c-1.397,0-2.529-1.132-2.529-2.529
					s1.132-2.529,2.529-2.529C243.867,228.47,245,229.602,245,230.999z"/>
				<circle style="fill:#f4511e;" cx="251.575" cy="230.896" r="2.529"/>
			</g>
		</g>
		<polygon style="opacity:0.41;fill:#210328;" points="338.473,362.408 337.843,354.782 361.873,354.263 361.626,361.628 		"/>
		<g>
			<g>
				<path style="fill:#f4511e;" d="M137.527,306.553c-12.231-8.975-14.063-18.145-9.158-24.829
					c4.905-6.685,14.691-8.353,26.922,0.622c12.231,8.975,18.169,21.669,13.264,28.354
					C163.649,317.384,149.758,315.528,137.527,306.553z"/>
				<path style="fill:#f4511e;" d="M136.177,336.322c-8.02-6.93-8.733-13.482-4.873-17.948c3.86-4.467,10.83-5.157,18.85,1.773
					s11.393,16.169,7.534,20.635C153.827,345.249,144.197,343.252,136.177,336.322z"/>
				<g>
					<path style="fill:#31003A;" d="M149.269,295.763c-3.998-2.936-8.039-5.819-12.236-8.444c-2.098-1.303-4.224-2.595-6.469-3.564
						c-0.559-0.241-1.133-0.446-1.704-0.581c-0.286-0.07-0.57-0.104-0.835-0.104l-0.187,0.02l-0.091,0.008
						c0.006,0.01,0.02-0.011,0.012,0c-0.022,0.012-0.102,0.12-0.15,0.238c-0.404,1.036-0.514,2.327-0.648,3.529
						c-0.417,4.911-0.498,9.876-0.554,14.828c-0.044,4.955-0.015,9.913,0.043,14.871c0.052,9.916,0.269,19.833,0.454,29.75
						l0.583,29.757c-0.588-9.906-1.003-19.819-1.352-29.736c-0.344-9.917-0.554-19.838-0.684-29.762
						c-0.028-4.963-0.026-9.926,0.048-14.891c0.102-4.964,0.159-9.932,0.701-14.898c0.173-1.247,0.263-2.471,0.78-3.748
						c0.082-0.16,0.16-0.334,0.39-0.506c0.05-0.042,0.145-0.076,0.22-0.1l0.14-0.016l0.276-0.024
						c0.354,0.004,0.688,0.056,1.003,0.138c0.632,0.162,1.227,0.39,1.801,0.649c2.294,1.044,4.401,2.374,6.484,3.732
						C141.422,289.684,145.407,292.647,149.269,295.763z"/>
				</g>
				<path style="fill:#f4511e;" d="M118.688,323.935c7.41-7.579,7.59-14.148,3.395-18.249c-4.194-4.101-11.175-4.181-18.585,3.398
					c-7.41,7.579-10.016,17.048-5.822,21.148C101.871,334.334,111.278,331.515,118.688,323.935z"/>
				<g>
					<path style="fill:#31003A;" d="M142.414,326.382c-1.981-2.277-4.054-4.511-6.45-6.309c-0.599-0.443-1.218-0.861-1.873-1.182
						c-0.647-0.318-1.359-0.561-2.001-0.468c-0.296,0.055-0.652,0.185-0.732,0.384c-0.148,0.254-0.257,0.609-0.335,0.959
						c-0.163,0.708-0.253,1.453-0.327,2.195c-0.49,5.98-0.38,12.047-0.281,18.08c0.058,6.042,0.262,12.085,0.427,18.129
						l0.502,18.139c-0.553-6.027-0.942-12.066-1.271-18.108c-0.325-6.043-0.521-12.092-0.658-18.145
						c-0.032-3.027-0.038-6.056,0.014-9.086c0.069-3.03,0.121-6.064,0.506-9.097c0.099-0.759,0.212-1.516,0.411-2.277
						c0.102-0.381,0.214-0.761,0.457-1.154c0.054-0.096,0.141-0.198,0.26-0.292c0.111-0.097,0.203-0.114,0.307-0.173
						c0.197-0.104,0.424-0.146,0.636-0.178c0.88-0.089,1.651,0.236,2.339,0.592c0.691,0.369,1.321,0.815,1.917,1.297
						C138.608,321.657,140.603,323.959,142.414,326.382z"/>
				</g>
				<g>
					<path style="fill:#31003A;" d="M112.032,315.671c0.891-1.645,1.876-3.241,2.948-4.78c1.073-1.537,2.221-3.031,3.556-4.375
						c0.672-0.666,1.398-1.289,2.218-1.803c0.819-0.481,1.784-0.929,2.845-0.78c0.126,0.013,0.256,0.022,0.432,0.115
						c0.182,0.068,0.248,0.187,0.371,0.285c0.181,0.212,0.32,0.435,0.43,0.658c0.226,0.447,0.388,0.901,0.532,1.357
						c0.284,0.913,0.501,1.833,0.688,2.757c0.75,3.695,1.128,7.428,1.506,11.154c0.362,3.729,0.648,7.462,0.902,11.196
						c0.436,7.473,0.778,14.949,0.979,22.428c0.195,7.48,0.316,14.961,0.255,22.443l-1.023-22.414
						c-0.36-7.468-0.694-14.938-1.207-22.393c-0.475-7.45-0.952-14.933-2.164-22.269c-0.162-0.913-0.353-1.82-0.603-2.699
						c-0.126-0.438-0.271-0.871-0.458-1.263c-0.091-0.199-0.201-0.376-0.317-0.523c-0.153-0.134-0.16-0.188-0.412-0.209
						c-0.819-0.147-1.694,0.204-2.467,0.639c-0.779,0.459-1.492,1.047-2.168,1.674C116.181,309.415,114.028,312.521,112.032,315.671
						z"/>
				</g>
				<path style="fill:#f4511e;" d="M128.708,352.526c4.858-8.843,2.718-15.256-2.999-18.397c-5.717-3.141-12.847-1.82-17.705,7.023
					c-4.858,8.843-4.161,18.558,1.556,21.699C115.277,365.992,123.85,361.369,128.708,352.526z"/>
				<g>
					<path style="fill:#31003A;" d="M115.67,349.765c0.95-2.509,2.115-4.934,3.407-7.296c1.339-2.33,2.819-4.619,4.803-6.532
						c0.996-0.934,2.17-1.804,3.633-2.096c0.367-0.059,0.737-0.092,1.113-0.059c0.382,0.012,0.847,0.169,1.153,0.414
						c0.646,0.484,1.021,1.123,1.345,1.746c0.618,1.267,0.988,2.587,1.3,3.909c0.31,1.323,0.54,2.656,0.738,3.99
						c0.697,5.35,0.957,10.72,1.035,16.086c0.059,5.366-0.038,10.731-0.38,16.084c-0.042-2.681-0.064-5.359-0.146-8.037
						c-0.051-2.677-0.124-5.353-0.243-8.026c-0.236-5.342-0.49-10.696-1.255-15.966c-0.381-2.614-0.8-5.299-1.863-7.636
						c-0.277-0.563-0.619-1.107-1.051-1.432c-0.224-0.171-0.422-0.239-0.705-0.259c-0.294-0.031-0.59-0.007-0.888,0.036
						c-1.191,0.229-2.298,0.96-3.271,1.813c-1.947,1.747-3.493,3.96-4.899,6.214C118.074,344.975,116.826,347.347,115.67,349.765z"
						/>
				</g>
			</g>
			<g>
				<path style="fill:#31003A;" d="M155.523,380.757l0.003,0.322c0.016,1.644-0.106,3.253-0.366,4.808
					c-1.979,12.631-12.2,22.294-24.608,22.416c-2.562,0.025-5.037-0.364-7.377-1.103c-2.064-0.641-4.021-1.568-5.823-2.726
					c-4.456-2.859-8.025-7.141-10.142-12.273c-0.894-2.141-1.532-4.44-1.858-6.843c-0.187-1.229-0.282-2.496-0.294-3.782
					c-0.082-8.34,3.449-12.655,9.021-14.85c0.988-0.395,2.041-0.718,3.141-0.977c1.979-0.488,4.135-0.794,6.42-0.982
					c1.101-0.094,2.23-0.151,3.387-0.189c1.047-0.047,2.112-0.067,3.196-0.077c4.106-0.04,7.974,0.087,11.397,0.678
					c2.107,0.356,4.041,0.888,5.748,1.661C152.257,369.022,155.366,373.153,155.523,380.757z"/>
				<path style="opacity:0.28;fill:#FFFFFF;" d="M114.721,381.672c-3.609,0.035-6.893,1.427-9.37,3.684
					c0.327,2.403,0.965,4.703,1.858,6.843c1.435-2.65,4.237-4.46,7.461-4.492c4.739-0.047,8.616,3.764,8.663,8.503
					c0.038,3.867-2.483,7.152-5.981,8.262c1.802,1.158,3.759,2.085,5.823,2.726c3.557-2.589,5.849-6.809,5.802-11.548
					C128.9,387.853,122.519,381.596,114.721,381.672z"/>
				<path style="opacity:0.28;fill:#FFFFFF;" d="M154.055,380.9c-4.739,0.047-8.626-3.755-8.672-8.494
					c-0.021-2.113,0.723-4.058,1.984-5.568c-1.707-0.773-3.641-1.305-5.748-1.661c-1.073,2.013-1.675,4.324-1.651,6.777
					c0.077,7.798,6.458,14.055,14.246,13.978c0.322-0.003,0.634-0.015,0.946-0.046c0.26-1.555,0.382-3.164,0.366-4.808l-0.003-0.322
					C155.047,380.844,154.56,380.895,154.055,380.9z"/>
				<path style="opacity:0.28;fill:#FFFFFF;" d="M141.18,387.601c-3.788,0.037-6.831,3.141-6.793,6.933
					c0.037,3.792,3.141,6.835,6.928,6.798c3.792-0.037,6.835-3.141,6.798-6.933C148.075,390.607,144.972,387.564,141.18,387.601z
					 M141.237,398.885c-2.305,0.023-4.195-1.826-4.217-4.131c-0.023-2.305,1.83-4.195,4.135-4.217
					c2.305-0.023,4.19,1.831,4.213,4.135C145.391,396.977,143.542,398.862,141.237,398.885z"/>
				<path style="opacity:0.28;fill:#FFFFFF;" d="M127.027,364.576c-1.157,0.039-2.286,0.096-3.387,0.189
					c0.825,0.754,1.341,1.833,1.353,3.036c0.023,2.305-1.824,4.188-4.129,4.211c-2.305,0.023-4.197-1.823-4.22-4.129
					c-0.007-0.771,0.196-1.508,0.576-2.137c-1.1,0.259-2.153,0.582-3.141,0.977c-0.052,0.304-0.067,0.616-0.064,0.938
					c0.037,3.793,3.135,6.831,6.928,6.793c3.793-0.037,6.831-3.135,6.793-6.928C127.725,366.471,127.476,365.463,127.027,364.576z"
					/>
			</g>
		</g>
		<g>
			<circle style="fill:#D12F2F;" cx="123.731" cy="235.042" r="25.14"/>
			<circle style="fill:#f4511e;" cx="119.878" cy="235.813" r="25.14"/>
			<g>
				<path style="fill:#44004E;" d="M127.959,243.273c-1.091,1.109-2.671,1.819-4.742,2.13v3.051h-3.299v-2.941
					c-1.374-0.092-2.675-0.326-3.903-0.701c-1.228-0.376-2.245-0.839-3.051-1.388l1.787-4.013c0.861,0.568,1.859,1.026,2.996,1.374
					c1.136,0.348,2.254,0.522,3.353,0.522c2.089,0,3.133-0.522,3.133-1.567c0-0.55-0.298-0.957-0.894-1.223
					c-0.596-0.265-1.553-0.545-2.872-0.838c-1.448-0.311-2.658-0.646-3.629-1.003c-0.971-0.357-1.805-0.93-2.501-1.718
					c-0.696-0.788-1.044-1.851-1.044-3.188c0-1.576,0.568-2.928,1.704-4.054c1.136-1.127,2.776-1.818,4.92-2.075v-3.023h3.299v2.969
					c1.044,0.092,2.048,0.275,3.01,0.55c0.962,0.275,1.818,0.632,2.57,1.072l-1.677,4.041c-1.832-0.99-3.61-1.484-5.332-1.484
					c-1.081,0-1.869,0.161-2.364,0.481c-0.494,0.321-0.742,0.738-0.742,1.25c0,0.513,0.292,0.898,0.879,1.155
					c0.586,0.257,1.53,0.522,2.831,0.797c1.466,0.312,2.68,0.646,3.642,1.003c0.962,0.357,1.796,0.925,2.501,1.704
					c0.705,0.779,1.059,1.837,1.059,3.175C129.594,240.85,129.049,242.164,127.959,243.273z"/>
			</g>
		</g>
		<g>
			<circle style="fill:#D12F2F;" cx="289.182" cy="367.016" r="19.085"/>
			
				<ellipse transform="matrix(0.2316 -0.9728 0.9728 0.2316 -137.6553 560.92)" style="fill:#f4511e;" cx="286.257" cy="367.601" rx="19.085" ry="19.085"/>
			<g>
				<path style="fill:#44004E;" d="M290.451,373.358c-0.828,0.842-2.028,1.381-3.599,1.617v2.316h-2.504v-2.233
					c-1.043-0.07-2.031-0.247-2.963-0.532c-0.932-0.285-1.704-0.637-2.316-1.054l1.356-3.047c0.654,0.431,1.411,0.779,2.274,1.043
					c0.862,0.264,1.711,0.396,2.546,0.396c1.586,0,2.379-0.396,2.379-1.189c0-0.417-0.227-0.727-0.678-0.928
					c-0.452-0.202-1.179-0.414-2.18-0.636c-1.099-0.237-2.017-0.49-2.755-0.762c-0.737-0.271-1.37-0.706-1.899-1.304
					c-0.529-0.598-0.793-1.405-0.793-2.42c0-1.196,0.431-2.222,1.293-3.078c0.862-0.855,2.107-1.38,3.735-1.575v-2.295h2.504v2.254
					c0.793,0.07,1.554,0.208,2.285,0.417c0.73,0.209,1.38,0.48,1.951,0.814l-1.273,3.067c-1.391-0.751-2.741-1.127-4.048-1.127
					c-0.821,0-1.419,0.122-1.794,0.365c-0.375,0.243-0.563,0.56-0.563,0.949c0,0.39,0.222,0.682,0.668,0.876
					c0.445,0.195,1.161,0.396,2.149,0.605c1.113,0.237,2.035,0.49,2.765,0.762c0.73,0.271,1.363,0.703,1.898,1.294
					c0.535,0.592,0.804,1.395,0.804,2.41C291.693,371.518,291.279,372.516,290.451,373.358z"/>
			</g>
		</g>
		<g>
			
				<ellipse transform="matrix(0.1609 -0.987 0.987 0.1609 -169.1532 588.0559)" style="fill:#D12F2F;" cx="261.269" cy="393.51" rx="14.445" ry="14.445"/>
			<circle style="fill:#f4511e;" cx="259.055" cy="393.952" r="14.445"/>
			<g>
				<path style="fill:#44004E;" d="M261.785,397.643c-0.627,0.637-1.535,1.045-2.724,1.224v1.753h-1.895v-1.69
					c-0.79-0.053-1.537-0.187-2.243-0.403c-0.705-0.216-1.29-0.482-1.753-0.797l1.027-2.306c0.495,0.327,1.068,0.59,1.721,0.79
					c0.653,0.2,1.295,0.3,1.927,0.3c1.2,0,1.801-0.3,1.801-0.9c0-0.316-0.172-0.55-0.514-0.703c-0.342-0.152-0.892-0.313-1.65-0.482
					c-0.832-0.179-1.527-0.371-2.085-0.577c-0.558-0.205-1.037-0.534-1.437-0.987c-0.4-0.452-0.6-1.063-0.6-1.832
					c0-0.905,0.326-1.682,0.979-2.33c0.653-0.647,1.595-1.045,2.827-1.192v-1.737h1.895v1.706c0.6,0.053,1.177,0.158,1.729,0.316
					c0.553,0.158,1.045,0.363,1.477,0.616l-0.964,2.322c-1.053-0.569-2.074-0.853-3.064-0.853c-0.621,0-1.074,0.092-1.358,0.276
					c-0.284,0.184-0.426,0.424-0.426,0.719c0,0.295,0.168,0.516,0.505,0.663c0.337,0.148,0.879,0.3,1.627,0.458
					c0.842,0.179,1.54,0.371,2.093,0.577c0.553,0.205,1.032,0.532,1.437,0.979c0.405,0.448,0.608,1.056,0.608,1.824
					C262.724,396.25,262.411,397.006,261.785,397.643z"/>
			</g>
		</g>
		<g>
			<path style="fill:#f4511e;" d="M322.887,408.457h-46.975c-3.081,0-5.578-2.497-5.578-5.578l0,0c0-3.081,2.497-5.578,5.578-5.578
				h46.975c3.081,0,5.578,2.497,5.578,5.578l0,0C328.465,405.959,325.968,408.457,322.887,408.457z"/>
			<path style="fill:#f4511e;" d="M319.658,397.888h-46.975c-3.081,0-5.578-2.497-5.578-5.578l0,0c0-3.081,2.497-5.578,5.578-5.578
				h46.975c3.081,0,5.578,2.497,5.578,5.578l0,0C325.236,395.39,322.738,397.888,319.658,397.888z"/>
			<path style="opacity:0.28;fill:#31003A;" d="M272.473,398.034l46.744-0.734l-49.103,4.658
				C270.114,401.958,270.704,398.328,272.473,398.034z"/>
		</g>
		<g>
			<g>
				<path style="fill:#44004E;" d="M393.237,357.281c2.213,0.966,3.764,1.956,3.764,1.956l-12.343,32.193c0,0-1.668-1.03-2.954-2.67
					c-0.879-1.115-1.579-2.512-1.458-4.058c0.296-3.814,2.875-5.991,0.283-10.987c-2.591-4.998-3.617-9.354-3.617-9.354l4.611-8.513
					c0,0-0.367,0.039-0.431,0.042c0.086-0.014,0.855-0.099,3.672-0.401C387.605,355.183,390.817,356.22,393.237,357.281z"/>
				<path style="fill:#f4511e;" d="M393.237,357.281c2.213,0.966,3.764,1.956,3.764,1.956l-12.343,32.193c0,0-1.668-1.03-2.954-2.67
					L393.237,357.281z"/>
				<polygon style="fill:#f4511e;" points="376.049,369.208 380.587,366.709 381.953,370.923 378.072,372.848 				"/>
			</g>
			<path style="fill:#36013F;" d="M311.263,253.986c0,0-9.212,73.885-7.857,77.22c1.355,3.335,35.764,20.267,35.764,20.267
				l1.626-41.047l-4.064-33.094l-15.444-23.346H311.263z"/>
			<path style="fill:#44004E;" d="M333.088,167.141c0,0-23.579,5.721-22.409-5.465c0,0-12.612-8.754-5.978-12.136
				c0,0-9.495-19.25,9.235-18.73c0,0,8.194-11.316,19.901-1.691c0,0,13.007-6.894,14.828,10.406c0,0,5.723,2.211,4.032,10.796
				c0,0,7.284,6.243-1.301,13.007c-8.585,6.764-17.488,6.183-17.488,6.183L333.088,167.141z"/>
			<path style="fill:#44004E;" d="M359.193,402.984c-0.056,2.414-0.383,4.224-0.383,4.224l-34.469,0.781
				c0,0,0.321-1.934,1.351-3.746c0.698-1.236,1.726-2.414,3.202-2.887c3.641-1.172,6.633,0.389,10.275-3.903
				c3.643-4.292,7.284-6.893,7.284-6.893l9.626,1.04c0,0-0.175-0.325-0.202-0.383c0.045,0.074,0.416,0.754,1.763,3.246
				C358.999,396.977,359.257,400.342,359.193,402.984z"/>
			<path style="fill:#f4511e;" d="M359.193,402.984c-0.056,2.414-0.383,4.224-0.383,4.224l-34.469,0.781
				c0,0,0.321-1.934,1.351-3.746L359.193,402.984z"/>
			<polygon style="fill:#f4511e;" points="341.641,391.599 345.673,394.851 342.291,397.713 339.039,394.851 			"/>
			<path style="fill:#F6B6A6;" d="M346.453,371.569l1.041,21.071c0,0,2.861,3.642,5.593,1.821c2.731-1.821,2.79-3.245,2.79-3.245
				l-0.709-20.428L346.453,371.569z"/>
			<path style="fill:#44004E;" d="M316.147,260.489l17.169,33.038l6.764,81.164l23.152-0.78c0,0,2.601-84.025,1.301-118.624
				c0,0-12.227-4.683-14.568-4.943c-2.341-0.26-21.852,0.26-21.852,0.26L316.147,260.489z"/>
			<polygon style="fill:#36013F;" points="364.132,333.588 372.682,338.011 363.145,359.602 			"/>
			<path style="fill:#F6B6A6;" d="M383.103,357.211l-15.348-9.105l-3.122,8.585c0,0,12.487,6.764,15.348,7.024
				C382.843,363.975,384.924,361.374,383.103,357.211z"/>
			<path style="fill:#f4511e;" d="M323.691,181.927c0,0-14.828,8.325-17.169,11.966c-2.341,3.642-1.301,21.592,1.561,32.257
				c2.862,10.666,1.561,36.94,1.561,36.94s1.821,2.601,9.625,1.041c7.804-1.561,7.284-5.463,17.95-5.983
				c10.666-0.52,27.575,1.821,27.575,1.821s0.78-22.632-1.301-30.436c-2.081-7.804-5.203-34.598-5.203-34.598
				s-11.186-12.487-21.071-14.828L323.691,181.927z"/>
			<path style="fill:#f4511e;" d="M262.038,192.072l9.885-4.422l15.088,25.494l19.51-19.25l5.723,11.706l-0.52,19.51
				c0,0-21.071,16.649-29.916,13.787C272.964,236.036,262.038,192.072,262.038,192.072z"/>
			<path style="fill:#f4511e;" d="M358.29,194.934c0,0-8.585,6.243-10.926,14.828c-2.341,8.585,4.422,20.291,6.503,27.575
				c2.081,7.284-5.983,30.176-5.983,30.176l12.487,7.024c0,0,10.406-17.169,10.926-31.477
				C371.817,228.752,364.793,201.438,358.29,194.934z"/>
			<polygon style="fill:#36013F;" points="343.527,266.407 342.161,271.09 359.525,280.065 362.647,276.163 344.112,264.456 			"/>
			<path style="fill:#F6B6A6;" d="M325.252,167.88l-2.341,14.828l0.12,1.832c0.171,2.61,3.181,3.977,5.259,2.389l8.929-6.823
				v-22.632L325.252,167.88z"/>
			<path style="fill:#F6B6A6;" d="M314.716,147.459c0,0-1.04,15.608,0.65,19.771c1.691,4.162,8.454,6.634,14.178,4.552
				c5.723-2.081,8.715-10.145,9.105-14.308c0.39-4.162,0.781-11.706-1.561-13.527c-2.341-1.821-16.779-4.552-19.901-2.862
				C314.066,142.776,314.716,147.459,314.716,147.459z"/>
			<path style="fill:#44004E;" d="M312.635,147.849l21.592-1.561c0,0-0.26,12.617,3.382,15.738c0,0,2.601-2.341,2.862-7.804
				c0.26-5.463,1.691-10.406-1.561-14.048c-3.252-3.642-17.82-6.633-21.462-3.642C313.806,139.524,308.863,142.386,312.635,147.849z
				"/>
			<path style="fill:#F6B6A6;" d="M347.234,157.344c0,3.376-2.737,6.113-6.113,6.113c-3.376,0-6.113-2.737-6.113-6.113
				c0-3.376,2.737-6.113,6.113-6.113C344.497,151.231,347.234,153.968,347.234,157.344z"/>
			<path style="fill:#36203A;" d="M320.309,164.693l4.162-1.106c0,0,0.845,2.992-1.301,3.447
				C321.025,167.489,320.309,164.693,320.309,164.693z"/>
			<path style="fill:#36203A;" d="M318.749,156.791c0,0.7-0.568,1.268-1.268,1.268c-0.7,0-1.268-0.568-1.268-1.268
				c0-0.7,0.568-1.268,1.268-1.268C318.181,155.523,318.749,156.091,318.749,156.791z"/>
			<path style="fill:#36203A;" d="M329.089,156.238c0,0.718-0.582,1.301-1.301,1.301c-0.718,0-1.301-0.582-1.301-1.301
				c0-0.718,0.582-1.301,1.301-1.301C328.507,154.938,329.089,155.52,329.089,156.238z"/>
			<path style="fill:#F6B6A6;" d="M263.339,191.422c0,0-2.601-15.218,0.65-17.039c3.252-1.821,6.764,13.657,6.764,13.657
				L263.339,191.422z"/>
			<path style="opacity:0.41;fill:#210328;" d="M317.188,264.651c0,0,1.041,14.568,4.943,20.291
				c3.902,5.723,3.382,3.122,3.902,13.007c0.52,9.885,9.885,27.055,9.885,27.055l-2.601-31.477L317.188,264.651z"/>
			<path style="fill:#DD988A;" d="M324.558,172.475l-1.561,9.799c0,0,12.747-3.122,13.094-17.343
				C336.091,164.931,330.455,173.169,324.558,172.475z"/>
			<polygon style="fill:#36203A;" points="326.488,150.971 326.423,152.206 329.934,152.401 329.934,151.036 			"/>
			<polygon style="fill:#36203A;" points="318.553,152.011 318.618,153.312 315.367,153.962 315.237,152.857 			"/>
			<path style="opacity:0.52;fill:#D86C56;" d="M332.879,161.441c0,0.539-1.081,0.976-2.415,0.976c-1.334,0-2.415-0.437-2.415-0.976
				c0-0.539,1.081-0.975,2.415-0.975C331.798,160.466,332.879,160.902,332.879,161.441z"/>
			<path style="opacity:0.52;fill:#D86C56;" d="M317.73,161.896c0,0.539-0.961,0.976-2.147,0.976c-1.186,0-2.147-0.437-2.147-0.976
				c0-0.539,0.961-0.975,2.147-0.975C316.768,160.921,317.73,161.358,317.73,161.896z"/>
			<path style="fill:#DD988A;" d="M338.779,157.908c0,0,1.734-4.249,3.555-3.382c1.821,0.867,0.26,3.035,0.26,3.035
				s0.087-1.994-1.041-1.301c-1.127,0.694-1.214,2.428-1.994,2.428S338.779,157.908,338.779,157.908z"/>
			<path style="opacity:0.41;fill:#210328;" d="M308.213,227.582c0,0-1.951-12.292,0.39-19.51c0,0-3.902,6.438-6.048,12.292
				c-2.146,5.853-4.097,7.219-7.609,10.536c-3.512,3.317-3.902,6.634-3.902,6.634S301.579,234.41,308.213,227.582z"/>
			<path style="opacity:0.41;fill:#210328;" d="M357.769,195.975c0,0-6.764,6.504-8.845,13.787
				c-2.081,7.284-0.52,19.511,1.301,24.193c1.821,4.682,2.601,9.365,2.601,9.365l7.804,0.78l-6.764,1.561l-2.861,11.446
				c0,0,1.821-8.194,0.26-11.966c-1.561-3.772-5.203-23.283-5.593-27.965c-0.163-1.958-0.076-4.213,0.08-6.173
				c0.259-3.243,1.663-6.285,3.956-8.594C351.853,200.251,354.777,197.637,357.769,195.975z"/>
			<path style="fill:#F99345;" d="M320.136,183.835c0,0,0.694,6.157,3.815,6.677c3.122,0.52,7.371-2.948,8.931-3.989
				c1.561-1.04,6.85-5.55,6.85-5.55l-2.515-0.867c0,0-9.018,7.024-11.533,7.024c-3.302,0-2.688-4.856-2.688-4.856L320.136,183.835z"
				/>
			<polygon style="fill:#DD988A;" points="364.633,356.691 374.976,352.542 367.754,348.107 			"/>
			<polygon style="fill:#DD988A;" points="346.581,374.585 355.527,382.105 355.268,374.066 			"/>
			<polygon style="fill:#44004E;" points="322.766,149.493 334.608,146.208 328.125,145.257 			"/>
		</g>
		<g>
			<path style="fill:#f4511e;" d="M371.711,176.559l0.62,10.302c0.059,0.972,0.774,1.701,1.592,1.623l17.813-1.691
				c0.716-0.068,1.288-0.733,1.354-1.581c0.262-3.355,0.608-11.349-1.981-11.925c-2.351-0.523-6.598-0.172-8.818,0.069
				c-0.803,0.087-1.514-0.602-1.603-1.553l-0.407-4.346c-0.032-0.345-0.15-0.668-0.337-0.934c-0.342-0.487-0.957-1.295-1.69-1.947
				c-0.962-0.856-2.339-0.03-2.353,1.396l-0.065,6.661c-0.008,0.839-0.516,1.554-1.212,1.705l-1.705,0.37
				C372.178,174.87,371.657,175.667,371.711,176.559z"/>
			
				<rect x="365.148" y="173.531" transform="matrix(0.9969 -0.0787 0.0787 0.9969 -13.1402 29.6552)" style="fill:#44004E;" width="8.887" height="15.947"/>
		</g>
		<g>
			<path style="fill:#44004E;" d="M408.511,299.826h-26.289c-1.257,0-2.276-1.019-2.276-2.276V276.19
				c0-1.257,1.019-2.276,2.276-2.276h26.289c1.257,0,2.276,1.019,2.276,2.276v21.359
				C410.787,298.806,409.768,299.826,408.511,299.826z"/>
			<path style="fill:#f4511e;" d="M390.364,286.966c0,1.014-0.823,1.837-1.837,1.837c-1.015,0-1.837-0.823-1.837-1.837
				c0-1.015,0.822-1.837,1.837-1.837C389.542,285.129,390.364,285.952,390.364,286.966z"/>
			<path style="fill:#f4511e;" d="M397.951,287.02c0,1.014-0.822,1.837-1.837,1.837c-1.015,0-1.837-0.823-1.837-1.837
				c0-1.015,0.822-1.837,1.837-1.837C397.129,285.183,397.951,286.005,397.951,287.02z"/>
			<circle style="fill:#f4511e;" cx="402.727" cy="286.945" r="1.837"/>
		</g>
		<g>
			<path style="fill:#44004E;" d="M143.786,171.621h-26.289c-1.257,0-2.276-1.019-2.276-2.276v-21.359
				c0-1.257,1.019-2.276,2.276-2.276h26.289c1.257,0,2.276,1.019,2.276,2.276v21.359
				C146.062,170.602,145.043,171.621,143.786,171.621z"/>
			<polygon style="fill:#f4511e;" points="123.171,157.171 129.552,164.133 139.897,154.464 137.577,152.144 129.552,158.815 
				125.491,154.947 			"/>
		</g>
		<g>
			<path style="fill:#f4511e;" d="M88.182,276.891c0,1.397-1.132,2.529-2.529,2.529c-1.397,0-2.529-1.132-2.529-2.529
				s1.132-2.529,2.529-2.529C87.05,274.362,88.182,275.494,88.182,276.891z"/>
			<path style="fill:#f4511e;" d="M98.628,276.965c0,1.397-1.132,2.529-2.529,2.529c-1.397,0-2.529-1.132-2.529-2.529
				s1.132-2.529,2.529-2.529C97.496,274.435,98.628,275.568,98.628,276.965z"/>
			<path style="fill:#f4511e;" d="M107.733,276.862c0,1.397-1.132,2.529-2.529,2.529c-1.397,0-2.529-1.132-2.529-2.529
				c0-1.397,1.132-2.529,2.529-2.529C106.6,274.333,107.733,275.465,107.733,276.862z"/>
		</g>
		<g>
			<path style="fill:#f4511e;" d="M365.268,121.904c0,1.397-1.132,2.529-2.529,2.529c-1.397,0-2.529-1.132-2.529-2.529
				c0-1.397,1.132-2.529,2.529-2.529C364.135,119.375,365.268,120.507,365.268,121.904z"/>
			<path style="fill:#f4511e;" d="M375.713,121.978c0,1.397-1.132,2.529-2.529,2.529c-1.397,0-2.529-1.132-2.529-2.529
				c0-1.397,1.132-2.529,2.529-2.529C374.581,119.449,375.713,120.581,375.713,121.978z"/>
			<path style="fill:#f4511e;" d="M384.818,121.875c0,1.397-1.132,2.529-2.529,2.529s-2.529-1.132-2.529-2.529
				c0-1.397,1.132-2.529,2.529-2.529S384.818,120.478,384.818,121.875z"/>
		</g>
		<g>
			<path style="fill:#f4511e;" d="M129.452,94.929c0,1.397-1.132,2.529-2.529,2.529c-1.397,0-2.529-1.132-2.529-2.529
				c0-1.397,1.132-2.529,2.529-2.529C128.319,92.4,129.452,93.532,129.452,94.929z"/>
			<circle style="fill:#f4511e;" cx="137.368" cy="95.003" r="2.529"/>
			<path style="fill:#f4511e;" d="M149.002,94.9c0,1.397-1.132,2.529-2.529,2.529c-1.397,0-2.529-1.132-2.529-2.529
				c0-1.397,1.132-2.529,2.529-2.529C147.87,92.371,149.002,93.503,149.002,94.9z"/>
		</g>
		<g>
			<path style="fill:#f4511e;" d="M409.646,335.096c0,1.397-1.132,2.529-2.529,2.529c-1.397,0-2.529-1.132-2.529-2.529
				c0-1.397,1.132-2.529,2.529-2.529C408.514,332.566,409.646,333.699,409.646,335.096z"/>
			<path style="fill:#f4511e;" d="M420.092,335.169c0,1.397-1.132,2.529-2.529,2.529c-1.397,0-2.529-1.132-2.529-2.529
				c0-1.397,1.132-2.529,2.529-2.529C418.96,332.64,420.092,333.772,420.092,335.169z"/>
			<path style="fill:#f4511e;" d="M429.197,335.067c0,1.397-1.132,2.529-2.529,2.529s-2.529-1.132-2.529-2.529
				c0-1.397,1.132-2.529,2.529-2.529S429.197,333.67,429.197,335.067z"/>
		</g>
		<polygon style="fill:#f4511e;" points="385.865,222.337 388.476,233.65 395.437,222.917 		"/>
		<polygon style="fill:#f4511e;" points="132.356,187.821 132.646,196.232 141.058,191.011 		"/>
		<polygon style="fill:#f4511e;" points="135.837,113.276 136.997,120.817 143.668,117.047 		"/>
		<polygon style="fill:#f4511e;" points="86.237,360.694 83.917,372.297 96.099,366.495 		"/>
		<polygon style="fill:#f4511e;" points="401.818,316.026 401.818,324.727 408.78,318.926 		"/>
		<polygon style="fill:#f4511e;" points="320.023,85.721 320.603,97.323 327.564,88.621 		"/>
	</g>
</g>
</svg>
